<svg width="46" height="40" viewBox="0 0 46 40" fill="none" xmlns="http://www.w3.org/2000/svg">
<path d="M45.9189 26.8835C45.9189 33.8032 40.3094 39.4127 33.3897 39.4127L14.5958 39.4127C12.6737 39.4127 11.1155 37.8545 11.1155 35.9324L11.1155 12.266C11.1155 8.42172 14.2319 5.30531 18.0762 5.30531L42.4386 5.30532C44.3607 5.30532 45.9189 6.86352 45.9189 8.78566L45.9189 26.8835Z" fill="#E8F5E9"/>
<path d="M17.373 7.39355C14.8872 7.39355 12.8635 9.43574 12.8635 11.9322C12.8635 13.5114 13.6744 14.9059 14.899 15.7187C13.42 16.2132 12.1402 17.1375 11.2015 18.3467C10.6825 17.9475 10.1027 17.6265 9.47754 17.3964C10.4255 16.6927 11.045 15.5622 11.045 14.2916C11.045 12.1743 9.33257 10.4411 7.22814 10.4411C5.1237 10.4411 3.41131 12.1743 3.41131 14.2916C3.41131 15.5629 4.0313 16.6939 4.98005 17.3977C2.46823 18.3246 0.674316 20.7513 0.674316 23.6073V25.6135C0.674573 25.7664 0.735749 25.9129 0.844219 26.0206C0.952688 26.1286 1.09946 26.1887 1.2524 26.1882H10.0542C10.0755 26.1905 10.0968 26.1918 10.1182 26.1916H24.6283C24.6497 26.1918 24.6713 26.1905 24.6923 26.1882H33.4948C33.8112 26.1869 34.0675 25.9301 34.0682 25.6135V23.6073C34.0682 20.7513 32.2774 18.3246 29.7669 17.3974C30.7156 16.6939 31.3356 15.5626 31.3356 14.2913C31.3356 12.1741 29.6233 10.4408 27.5188 10.4408C25.4144 10.4408 23.702 12.1741 23.702 14.2913C23.702 15.5619 24.3217 16.6926 25.2697 17.3962C24.6433 17.6267 24.0631 17.9488 23.5434 18.349C22.6052 17.1391 21.3272 16.2135 19.8482 15.7187C21.0725 14.9059 21.8837 13.5114 21.8837 11.9322C21.8837 9.43574 19.859 7.39355 17.3732 7.39355H17.373ZM17.373 8.5451C19.2322 8.5451 20.731 10.054 20.731 11.9322C20.731 13.7957 19.2556 15.2899 17.417 15.3138C17.4023 15.3138 17.3879 15.3118 17.373 15.3118C17.3581 15.3118 17.344 15.3138 17.3291 15.3138C15.4905 15.2902 14.016 13.7958 14.016 11.9322C14.016 10.0537 15.5136 8.5451 17.3728 8.5451H17.373ZM7.2282 11.5926C8.70337 11.5926 9.89348 12.7898 9.89348 14.2915C9.89348 15.7831 8.71877 16.9753 7.25748 16.9915C7.24772 16.9915 7.23821 16.9904 7.22818 16.9904C7.21841 16.9904 7.2089 16.9915 7.19888 16.9915C5.7376 16.9753 4.56289 15.7829 4.56289 14.2915C4.56289 12.7899 5.753 11.5926 7.22816 11.5926H7.2282ZM27.5185 11.5926C28.9936 11.5926 30.1837 12.7898 30.1837 14.2915C30.1837 15.7831 29.009 16.9753 27.5478 16.9915C27.538 16.9915 27.5285 16.9904 27.5185 16.9904C27.5087 16.9904 27.4992 16.9915 27.4891 16.9915C26.0279 16.9753 24.8532 15.7829 24.8532 14.2915C24.8532 12.7899 26.0433 11.5926 27.5184 11.5926H27.5185ZM17.3289 16.4653C17.3436 16.4656 17.358 16.4674 17.3729 16.4674C17.3875 16.4674 17.4019 16.4653 17.4168 16.4653C21.1041 16.489 24.055 19.4653 24.055 23.191L24.0548 25.0397H10.6915V23.191C10.6915 19.4649 13.6416 16.489 17.3284 16.4653H17.3289ZM7.18411 18.1443C7.19877 18.1446 7.21316 18.1464 7.22807 18.1464C7.24298 18.1464 7.25711 18.1443 7.27202 18.1443C8.51918 18.1544 9.65737 18.5844 10.5637 19.3038C9.91515 20.4513 9.54011 21.7758 9.54011 23.1913V25.0356H1.8254V23.6072C1.8254 20.5792 4.20614 18.168 7.18398 18.1441L7.18411 18.1443ZM27.4744 18.1443C27.4893 18.1446 27.5034 18.1464 27.5183 18.1464C27.5332 18.1464 27.5474 18.1443 27.5623 18.1443C30.5401 18.168 32.9209 20.5796 32.9209 23.6075V25.0356H25.2022L25.202 23.1913C25.202 21.7766 24.828 20.4531 24.1807 19.3059C25.0873 18.5854 26.2262 18.1543 27.4745 18.1443H27.4744Z" fill="#103E13"/>
</svg>
