<svg width="25" height="17" viewBox="0 0 25 17" fill="none" xmlns="http://www.w3.org/2000/svg">
<path d="M13.3106 9.17145L9.55815 15.5982L5.80572 9.17145H13.3106ZM14.3159 8.59705H4.79639L9.55815 16.7349L14.3159 8.59705Z" fill="#263238"/>
<path d="M19.8346 1.17808L23.587 7.60481H16.0821L19.8346 1.17808ZM19.8346 0.0292969L15.0728 8.16715H24.5963L19.8346 0.0292969Z" fill="#263238"/>
<path d="M0.233887 0.0292969L4.22647 7.22725L8.5894 0.210039L0.233887 0.0292969Z" fill="#4CAF4F"/>
<path d="M9.55838 0.659912L13.7463 7.8177H5.3623L9.55838 0.659912Z" fill="#4CAF4F"/>
<path d="M14.825 9.38037L19.017 16.735H10.4336L14.6948 9.38037H14.825Z" fill="#4CAF4F"/>
<path d="M15.7319 8.93445L19.8344 16.1766L23.9938 8.93445H15.7319Z" fill="#4CAF4F"/>
</svg>
