<svg width="46" height="40" viewBox="0 0 46 40" fill="none" xmlns="http://www.w3.org/2000/svg">
<path d="M45.6665 26.8835C45.6665 33.8032 40.057 39.4127 33.1373 39.4127L14.3434 39.4127C12.4212 39.4127 10.863 37.8545 10.863 35.9324L10.863 12.266C10.863 8.42172 13.9794 5.30531 17.8237 5.30531L42.1862 5.30532C44.1083 5.30532 45.6665 6.86352 45.6665 8.78566L45.6665 26.8835Z" fill="#E8F5E9"/>
<path d="M20.1288 16.8912C19.9612 16.8912 19.8055 16.8451 19.6673 16.771V16.773C19.6673 17.0367 19.5648 17.2843 19.3788 17.4698C19.1929 17.6558 18.9454 17.7583 18.682 17.7583C18.512 17.7583 18.3544 17.711 18.2146 17.6349C18.2005 17.8762 18.1041 18.1016 17.9321 18.2739C17.7461 18.4598 17.4986 18.5623 17.2351 18.5623C16.7114 18.5623 16.2862 18.1507 16.2556 17.6348C16.0935 17.7223 15.9103 17.7683 15.7214 17.7561C15.2063 17.7223 14.8029 17.2773 14.8029 16.7426V12.311L14.2983 13.1852C14.1061 13.5196 13.7463 13.7272 13.3589 13.7272C13.1702 13.7272 12.9837 13.6777 12.8186 13.5831C12.6129 13.4639 12.4658 13.2725 12.4046 13.0435C12.3432 12.8144 12.375 12.5748 12.4939 12.3695C12.494 12.3695 14.1449 9.5106 14.2456 9.33499C14.2576 9.30859 14.2917 9.23201 14.3208 9.16674C14.3485 9.10442 14.3723 9.04046 14.395 8.97618C14.8929 7.57062 16.1257 6.69751 17.6124 6.69751C19.5431 6.69751 21.1138 8.40073 21.1138 10.4943L21.114 15.9058C21.114 16.1692 21.0116 16.4166 20.8258 16.6028C20.6399 16.7887 20.3924 16.8912 20.1287 16.8912L20.1288 16.8912ZM17.6124 7.22106C16.3349 7.22106 15.3167 7.94265 14.8885 9.15127C14.8611 9.22801 14.8326 9.30476 14.7993 9.37954C14.7027 9.59618 14.7027 9.59618 14.6755 9.62733L14.6719 9.62422C14.5371 9.87857 14.1366 10.5721 12.9472 12.6315C12.8983 12.716 12.8853 12.814 12.9103 12.9078C12.9355 13.0017 12.996 13.0807 13.0798 13.1291C13.3399 13.2785 13.6961 13.182 13.8444 12.9238L14.838 11.2035C14.8974 11.101 15.0174 11.0506 15.1325 11.0818C15.247 11.1124 15.3265 11.2162 15.3265 11.3346V16.7428C15.3265 16.998 15.5191 17.2182 15.7557 17.2338C15.8922 17.241 16.0194 17.1952 16.115 17.0998C16.202 17.0129 16.2498 16.8971 16.2498 16.7733V13.2363C16.2498 13.0916 16.3671 12.9744 16.5117 12.9744C16.6564 12.9744 16.7736 13.0915 16.7736 13.2363L16.7735 17.5772C16.7735 17.8317 16.9806 18.0389 17.2351 18.0389C17.3588 18.0389 17.4749 17.991 17.5619 17.9041C17.6489 17.817 17.6967 17.7009 17.6967 17.5772V13.2363C17.6967 13.0916 17.8138 12.9744 17.9586 12.9744C18.1033 12.9744 18.2205 13.0915 18.2205 13.2363L18.2204 16.7326V16.7733C18.2204 17.0276 18.4275 17.2347 18.6822 17.2347C18.8057 17.2347 18.9214 17.1867 19.009 17.0994C19.0959 17.0127 19.1438 16.8969 19.1438 16.7731V13.2361C19.1438 13.0915 19.2609 12.9742 19.4057 12.9742C19.5504 12.9742 19.6676 13.0913 19.6676 13.2361L19.6673 15.9059C19.6673 16.1606 19.8744 16.3677 20.1287 16.3677C20.2526 16.3677 20.3683 16.3197 20.4553 16.2329C20.5425 16.1457 20.5902 16.0296 20.5902 15.9059L20.5904 10.4944C20.5904 8.68969 19.2545 7.22111 17.6124 7.22111L17.6124 7.22106Z" fill="#103E13"/>
<path d="M9.83908 20.6523L13.6394 18.3725C14.0976 18.0973 14.6872 18.2142 14.981 18.6388C15.0883 18.7934 15.1431 18.9737 15.1516 19.1572C15.2933 19.0832 15.4474 19.0431 15.6044 19.0431C15.6847 19.0431 15.7654 19.0531 15.8451 19.0729C16.1004 19.1367 16.3156 19.2963 16.4509 19.5219C16.5864 19.7479 16.6259 20.0127 16.5621 20.2678C16.5032 20.5037 16.3597 20.7024 16.1602 20.8386C16.2997 20.921 16.4201 21.0333 16.5057 21.1763C16.6411 21.4023 16.6807 21.667 16.617 21.9223C16.5532 22.1773 16.3937 22.3925 16.1677 22.5281L16.1664 22.5289C16.3035 22.6111 16.4217 22.7223 16.5063 22.8631C16.642 23.0891 16.6815 23.354 16.6177 23.6093C16.5537 23.8645 16.3942 24.0796 16.1685 24.2151L11.5283 26.9989C10.6622 27.5182 9.66102 27.6975 8.70953 27.5032C7.74953 27.307 6.95447 26.7552 6.47105 25.9493C5.70601 24.6743 5.82066 23.1679 6.76968 22.0181C6.81314 21.9656 6.85594 21.9122 6.89481 21.8567C6.93597 21.7982 6.98402 21.7293 7.00042 21.7057C7.09865 21.5302 8.70153 18.6423 8.70136 18.6426C8.86323 18.3506 9.16661 18.1852 9.4795 18.1854C9.62546 18.1854 9.77354 18.2213 9.91015 18.2971C10.0751 18.3892 10.2137 18.5236 10.3106 18.6854C10.5099 19.0175 10.5169 19.4331 10.3293 19.7694L9.83908 20.6523ZM9.86187 18.9546C9.81104 18.8699 9.74117 18.8023 9.65573 18.7544C9.47911 18.6567 9.25674 18.7203 9.1595 18.8963C8.01255 20.9626 7.62157 21.6667 7.47069 21.9173L7.47413 21.9182C7.46151 21.9601 7.46151 21.9601 7.32343 22.1574C7.27652 22.2242 7.22552 22.2883 7.17354 22.3514C6.35749 23.3401 6.26274 24.5844 6.91984 25.68C7.32687 26.3586 7.99958 26.8238 8.81411 26.9901C9.63751 27.1575 10.5054 27.0017 11.2586 26.5498L15.8993 23.7659C16.0052 23.7024 16.08 23.6016 16.1099 23.482C16.1397 23.3626 16.1212 23.2385 16.0576 23.1325C15.9267 22.9144 15.6425 22.8428 15.4244 22.9741L13.1351 24.3476C13.0111 24.422 12.85 24.382 12.7757 24.2579C12.7013 24.1339 12.7415 23.973 12.8654 23.8986L15.1549 22.5251L15.8985 22.0791C16.0044 22.0154 16.0794 21.9146 16.1092 21.7954C16.1391 21.6758 16.1205 21.5515 16.0569 21.4457C15.9259 21.2274 15.6417 21.1564 15.4237 21.2873L12.3907 23.1068C12.2664 23.1814 12.1058 23.1411 12.0314 23.0171C11.9569 22.8931 11.9973 22.7323 12.1211 22.6578L15.8436 20.4247C15.9495 20.3611 16.0243 20.2604 16.0541 20.1409C16.084 20.0215 16.0654 19.8973 16.002 19.7914C15.9385 19.6856 15.8376 19.6108 15.7181 19.581C15.5979 19.5511 15.4742 19.5697 15.3686 19.633L14.6795 20.0464C14.6794 20.0464 14.6794 20.0466 14.6792 20.0466H14.679L11.6462 21.8661C11.5219 21.9409 11.3612 21.9005 11.2869 21.7764C11.2124 21.6524 11.2528 21.4915 11.3766 21.4171L14.4096 19.5976C14.5155 19.5339 14.5905 19.4331 14.6203 19.3139C14.6531 19.183 14.6282 19.0492 14.5505 18.937C14.4157 18.742 14.1274 18.6902 13.9088 18.8215L9.27144 21.6035C9.16993 21.6642 9.03988 21.6494 8.95477 21.5673C8.8695 21.485 8.85031 21.3556 8.9077 21.2521L9.87199 19.5147C9.96875 19.3411 9.96497 19.1266 9.86182 18.9547L9.86187 18.9546Z" fill="#103E13"/>
<path d="M27.999 25.9492C27.5157 26.7552 26.7209 27.3069 25.7607 27.503C24.809 27.697 23.8082 27.5181 22.942 26.9987L18.3013 24.2148C18.0755 24.0793 17.9157 23.8642 17.8518 23.6087C17.7883 23.3537 17.828 23.0888 17.9633 22.8631C18.0477 22.7221 18.1661 22.6109 18.3034 22.5288L18.3021 22.528C18.0763 22.3925 17.9166 22.1773 17.8529 21.9221C17.789 21.667 17.8287 21.4019 17.9641 21.176C18.0514 21.0309 18.1709 20.9174 18.3074 20.8369C18.1092 20.7006 17.9666 20.5027 17.9079 20.2678C17.8439 20.0125 17.8836 19.7476 18.0191 19.5219C18.1544 19.2961 18.3697 19.1366 18.6249 19.0728C18.7046 19.0528 18.7854 19.0429 18.8654 19.0429C19.0225 19.0431 19.1767 19.0829 19.3184 19.1571C19.3271 18.9736 19.3817 18.7933 19.4889 18.6387C19.783 18.2144 20.372 18.097 20.8309 18.3724L24.6311 20.6519L24.1413 19.7696C23.9533 19.4327 23.9602 19.0172 24.1595 18.6849C24.2565 18.5232 24.3953 18.3889 24.5611 18.2959C24.6974 18.2205 24.8449 18.1847 24.9906 18.1847C25.3033 18.1849 25.607 18.3499 25.7687 18.642C26.3322 19.6573 27.3955 21.572 27.4703 21.7057C27.4862 21.7288 27.5342 21.7977 27.5754 21.8562C27.6146 21.9118 27.6569 21.965 27.7007 22.0178C28.6496 23.168 28.764 24.6743 27.999 25.9492L27.999 25.9492ZM27.2966 22.3515C27.2445 22.2884 27.1933 22.2239 27.1468 22.1575C27.0051 21.9565 27.0015 21.9512 26.9908 21.8986C26.8252 21.6245 26.4211 20.8971 25.3104 18.896C25.213 18.7204 24.9916 18.6563 24.8153 18.7537C24.7285 18.8022 24.6588 18.8699 24.608 18.9547C24.505 19.1264 24.5011 19.3409 24.5983 19.5151L25.5623 21.2519C25.6198 21.3556 25.6007 21.4848 25.5155 21.5671C25.4306 21.6496 25.3007 21.664 25.1987 21.6034L20.5614 18.8214C20.3428 18.6904 20.0546 18.7417 19.9195 18.9368C19.8418 19.049 19.817 19.1828 19.8495 19.3135C19.8793 19.4329 19.9543 19.5336 20.0604 19.5972C20.0607 19.5974 20.0609 19.5977 20.0612 19.5979L23.0933 21.4169C23.2172 21.4913 23.2574 21.6521 23.183 21.7762C23.1085 21.9 22.948 21.9405 22.8237 21.8659L19.1012 19.6328C18.9956 19.5695 18.8713 19.5508 18.7519 19.5808C18.6322 19.6107 18.5315 19.6855 18.468 19.7916C18.4044 19.8974 18.386 20.0215 18.4155 20.1409C18.4454 20.2603 18.5203 20.3611 18.6263 20.4248L19.3506 20.8592L22.3486 22.6579C22.4725 22.7323 22.5127 22.893 22.4383 23.0172C22.3638 23.141 22.2033 23.1813 22.079 23.1069L19.0463 21.2874C18.8282 21.1562 18.5441 21.2273 18.4129 21.4458C18.3493 21.5517 18.3309 21.6759 18.3604 21.7953C18.3903 21.9146 18.4652 22.0153 18.5713 22.0791L19.3149 22.5252L21.604 23.8986C21.728 23.9731 21.7682 24.1338 21.6937 24.2579C21.6193 24.3817 21.4587 24.4224 21.3344 24.3476L19.0453 22.9742C18.9397 22.9109 18.8159 22.8922 18.6958 22.9222C18.5764 22.9521 18.4754 23.0268 18.4119 23.1326C18.3485 23.2385 18.3299 23.3629 18.3595 23.4821C18.3893 23.6015 18.4643 23.7022 18.5704 23.7659L23.2111 26.5499C23.9641 27.0017 24.8326 27.1581 25.6555 26.9902C26.4699 26.8239 27.1426 26.3586 27.5496 25.68C28.2074 24.5842 28.1128 23.3399 27.2969 22.3515L27.2966 22.3515Z" fill="#103E13"/>
</svg>
