<svg width="34" height="34" viewBox="0 0 34 34" fill="none" xmlns="http://www.w3.org/2000/svg">
<g clip-path="url(#clip0_211_2046)">
<path fill-rule="evenodd" clip-rule="evenodd" d="M9.97876 3.14996C13.823 3.14996 16.9395 6.26637 16.9395 10.1107V3.14996H23.9002C27.7444 3.14996 30.8608 6.26637 30.8608 10.1107C30.8608 13.9549 27.7444 17.0714 23.9002 17.0714C27.7444 17.0714 30.8608 20.1878 30.8608 24.032C30.8608 25.9409 30.0925 27.6703 28.8482 28.9278L28.8221 28.954L28.799 28.977C27.5412 30.2231 25.8106 30.9927 23.9002 30.9927C22.0027 30.9927 20.2826 30.2335 19.027 29.0023C19.0107 28.9863 18.9944 28.9702 18.9782 28.954C18.9629 28.9388 18.9478 28.9235 18.9327 28.9081C17.6998 27.6522 16.9395 25.9309 16.9395 24.032C16.9395 27.8763 13.823 30.9927 9.97876 30.9927C6.13447 30.9927 3.01807 27.8763 3.01807 24.032V17.0714H9.97876C6.13447 17.0714 3.01807 13.9549 3.01807 10.1107C3.01807 6.26637 6.13447 3.14996 9.97876 3.14996ZM15.5473 10.1107C15.5473 13.1861 13.0542 15.6792 9.97876 15.6792V4.5421C13.0542 4.5421 15.5473 7.03523 15.5473 10.1107ZM29.4687 24.032C29.4687 20.9566 26.9756 18.4635 23.9002 18.4635C20.8247 18.4635 18.3316 20.9566 18.3316 24.032H29.4687ZM4.41021 18.4635V24.032C4.41021 27.1075 6.90333 29.6006 9.97876 29.6006C13.0542 29.6006 15.5473 27.1075 15.5473 24.032V18.4635H4.41021ZM18.3316 15.6792V4.5421H23.9002C26.9756 4.5421 29.4687 7.03523 29.4687 10.1107C29.4687 13.1861 26.9756 15.6792 23.9002 15.6792H18.3316Z" fill="#263238"/>
</g>
<defs>
<clipPath id="clip0_211_2046">
<rect width="27.8428" height="27.8428" fill="white" transform="translate(3.01807 3.14996)"/>
</clipPath>
</defs>
</svg>
