<svg width="34" height="34" viewBox="0 0 34 34" fill="none" xmlns="http://www.w3.org/2000/svg">
<g clip-path="url(#clip0_211_2056)">
<path d="M31.7852 9.70105C31.7852 9.72458 31.7852 9.754 31.779 9.77166C31.7484 10.0011 31.7484 10.2306 31.7667 10.466C31.779 10.5248 31.7913 10.5837 31.8403 10.6308C31.92 10.719 32.0426 10.7014 32.0917 10.5954C32.1162 10.5425 32.1162 10.4895 32.1039 10.4366C32.0426 10.213 32.0304 9.9776 32.0243 9.74812C32.0243 9.73635 32.0243 9.7187 32.0243 9.70105C32.0917 9.69516 32.153 9.68928 32.2082 9.68928C32.2511 9.68339 32.2879 9.67751 32.3186 9.65985C32.4105 9.61278 32.4105 9.51275 32.3124 9.46568C32.2756 9.44802 32.2266 9.44214 32.1837 9.44214C32.0304 9.44802 31.8771 9.44802 31.7238 9.44802C31.6687 9.44802 31.6135 9.45391 31.5583 9.45979C31.5276 9.46568 31.4909 9.46568 31.4664 9.48333C31.4234 9.50098 31.3989 9.5304 31.3989 9.57159C31.405 9.61278 31.4234 9.63632 31.4664 9.65397C31.4909 9.67163 31.5215 9.67751 31.5522 9.67751C31.6257 9.68339 31.7055 9.69516 31.7852 9.70105ZM33.4711 9.97172C33.4711 9.9776 33.4772 9.98349 33.4772 9.98349C33.5018 10.1424 33.5263 10.2954 33.5447 10.4483C33.5508 10.5013 33.557 10.5484 33.5937 10.5896C33.6734 10.6896 33.7961 10.6778 33.8512 10.5719C33.8758 10.5189 33.8819 10.466 33.8696 10.4071C33.8328 10.2306 33.8144 10.0541 33.7777 9.88346C33.7531 9.77754 33.7225 9.67751 33.6918 9.58336C33.6734 9.52452 33.6305 9.48333 33.557 9.47745C33.4834 9.46568 33.4282 9.50098 33.3975 9.55394C33.3608 9.60101 33.3301 9.64809 33.3056 9.70105C33.2627 9.79519 33.2259 9.88934 33.1769 9.9776C33.1707 10.0011 33.1646 10.0188 33.1523 10.0364C33.1462 10.0247 33.1401 10.0188 33.1401 10.0188C33.0603 9.87169 32.9868 9.72458 32.9071 9.58336C32.8948 9.57159 32.8887 9.55982 32.8826 9.54806C32.8458 9.4951 32.8029 9.46568 32.7354 9.46568C32.6741 9.47156 32.625 9.50687 32.5944 9.55982C32.5821 9.58336 32.5821 9.60101 32.576 9.62455C32.5515 9.81285 32.5208 10.0011 32.4963 10.1894C32.484 10.2954 32.4779 10.4013 32.4779 10.5072C32.4718 10.5307 32.4779 10.5601 32.4902 10.5837C32.5025 10.6307 32.5392 10.6602 32.5883 10.6661C32.6496 10.6719 32.6925 10.6543 32.7109 10.6072C32.7293 10.5719 32.7354 10.5425 32.7416 10.5131C32.7661 10.4071 32.7845 10.3071 32.8029 10.2071C32.8151 10.1482 32.8212 10.1012 32.8397 10.0364C32.8519 10.06 32.8641 10.0776 32.8764 10.0953C32.9316 10.1659 32.9868 10.2365 33.0542 10.2954C33.1217 10.3424 33.1769 10.3365 33.232 10.2836C33.2443 10.2718 33.2504 10.2659 33.2627 10.2542C33.3179 10.1718 33.3853 10.0894 33.4405 10.007C33.4527 9.99525 33.4589 9.98349 33.4711 9.97172Z" fill="#3A3B7B"/>
<path d="M19.345 9.81665C19.3023 9.92848 19.2942 10.009 19.3139 10.076C19.3356 10.1671 19.392 10.1969 19.4686 10.1737C20.1887 10.0028 21.7678 10.4879 22.3524 10.6231C22.4902 10.6515 22.6024 10.4807 22.5083 10.3275C22.371 10.1792 20.7927 9.54418 20.1904 9.50956C19.9543 9.49676 19.5323 9.43866 19.345 9.81665Z" fill="#3A3B7B"/>
<path d="M25.5163 7.76102C25.593 7.80353 25.6359 7.84409 25.6571 7.8894C25.6886 7.94884 25.672 7.98996 25.619 8.01095C25.143 8.23392 24.5096 9.19386 24.2539 9.52494C24.1919 9.6011 24.0489 9.55684 24.0273 9.43159C24.0318 9.28998 24.5933 8.24823 24.9066 7.96449C25.0298 7.85371 25.2332 7.63635 25.5163 7.76102Z" fill="#3A3B7B"/>
<path d="M21.7255 7.28851C21.8177 7.22181 21.9135 7.19844 21.9624 7.24179C22.6806 7.83129 23.0615 8.76481 23.2973 9.61943C23.3062 9.63934 23.3067 9.66792 23.2996 9.69772C23.2967 9.7232 23.2773 9.75011 23.2465 9.77093C23.2136 9.79392 23.1853 9.80092 23.1719 9.78111C22.8572 9.3702 21.0594 7.77143 21.7255 7.28851Z" fill="#3A3B7B"/>
<path d="M6.51707 17.5089C6.6892 17.386 6.87633 17.2836 7.07435 17.2041C7.28153 17.1473 7.50236 17.1567 7.70346 17.231C7.90452 17.3053 8.07497 17.4404 8.18891 17.6159C8.29084 17.791 8.33071 17.9931 8.30257 18.1919C8.27444 18.3906 8.1798 18.5751 8.03286 18.7178C7.91896 18.8334 7.78965 18.9341 7.64836 19.0173C7.01864 19.4078 6.38331 19.7768 5.74801 20.1673C5.61802 20.265 5.48011 20.3527 5.33562 20.4294C5.11583 20.5346 4.86465 20.5627 4.62551 20.509C4.38637 20.4553 4.17431 20.3231 4.026 20.1352C3.91513 20.0021 3.82155 19.8567 3.74735 19.7019C3.14548 18.4878 2.52133 17.279 1.94175 16.0434C1.67425 15.5086 1.45691 14.8934 1.24514 14.2997C1.15352 14.1272 1.13563 13.9273 1.19528 13.7423C1.25493 13.5573 1.38741 13.402 1.56454 13.3093C1.74167 13.2166 1.94948 13.194 2.14377 13.2461C2.33806 13.2982 2.50351 13.421 2.60492 13.5884C2.91662 13.9859 3.19255 14.4082 3.4297 14.8507C4.03157 15.9204 4.60558 16.9901 5.18515 18.0278C5.2189 18.0851 5.25611 18.1404 5.29661 18.1936C5.73284 18.0175 6.14313 17.7874 6.51707 17.5089Z" fill="#3A3B7B"/>
<path d="M12.7401 17.1358C11.3636 18.6816 9.05643 18.2911 7.89728 16.3014C7.07249 14.8893 6.9276 12.5573 8.72208 11.0864C9.10527 10.7785 9.56347 10.5687 10.054 10.4767C10.6554 10.3939 11.2686 10.4957 11.8061 10.7676C12.3436 11.0395 12.7777 11.4674 13.0466 11.9903C14.0274 13.7019 13.8881 15.8842 12.7401 17.1358ZM12.1828 13.5308C12.0366 13.1102 11.7432 12.7511 11.3524 12.5145C11.1313 12.3632 10.8626 12.2897 10.5917 12.3063C10.3206 12.3228 10.0639 12.4285 9.8645 12.6054C9.0676 13.2847 8.90038 14.8947 9.47996 15.8521C9.55385 16.0082 9.66232 16.147 9.7979 16.2586C9.93348 16.3703 10.0929 16.4522 10.2648 16.4985C10.4368 16.5449 10.6173 16.5546 10.7936 16.5271C10.9699 16.4994 11.1378 16.4352 11.2856 16.3388C11.7176 16.0174 12.0345 15.5747 12.1923 15.0725C12.3501 14.5702 12.341 14.0332 12.1661 13.5361L12.1828 13.5308Z" fill="#3A3B7B"/>
<path d="M18.3572 14.2047C18.2163 14.2338 18.0707 14.2355 17.929 14.2098C17.7874 14.1841 17.6525 14.1314 17.5324 14.055C17.4273 13.9972 17.3368 13.9179 17.2675 13.8226C17.1982 13.7273 17.1517 13.6185 17.1315 13.5039C17.1112 13.3894 17.1177 13.2719 17.1504 13.16C17.1831 13.0481 17.2413 12.9446 17.3207 12.8568C17.459 12.6805 17.6554 12.5542 17.8779 12.4985C18.459 12.3366 19.0572 12.2379 19.6613 12.2043C19.794 12.1895 19.9284 12.2003 20.0567 12.236C20.1851 12.2718 20.3046 12.3318 20.4085 12.4125C20.5123 12.4932 20.5983 12.593 20.6614 12.7061C20.7244 12.8191 20.7633 12.9431 20.7758 13.0708C20.95 13.6979 20.969 14.3555 20.8315 14.991C20.33 17.0449 18.6024 17.7509 16.663 17.093C16.1187 16.9171 15.6413 16.5894 15.2921 16.1516C14.8264 15.6245 14.4961 14.9998 14.328 14.3277C14.1918 13.7293 14.2067 13.1083 14.3716 12.5165C14.5364 11.9247 14.8463 11.3794 15.2754 10.926C15.6827 10.4332 16.2112 10.0453 16.8135 9.79738C17.1941 9.59605 17.6395 9.53881 18.0619 9.63692C18.1577 9.66238 18.2446 9.71197 18.3138 9.78056C18.3829 9.84916 18.4316 9.93424 18.4549 10.027C18.4783 10.1198 18.4753 10.2168 18.4463 10.3081C18.4174 10.3994 18.3635 10.4816 18.2903 10.5462C18.1512 10.6671 18 10.7746 17.8389 10.8671C17.3435 11.1699 16.9123 11.5602 16.5683 12.0171C16.3428 12.3128 16.1875 12.6523 16.1134 13.0117C16.0392 13.3712 16.048 13.7419 16.1392 14.0978C16.2656 14.583 16.5461 15.0185 16.9417 15.344C18.1677 16.4137 19.7615 15.3814 19.4829 13.9212C19.0761 14.0175 18.7194 14.1191 18.3572 14.2047Z" fill="#3A3B7B"/>
<path d="M25.8476 17.2213C24.0365 18.2911 21.9745 17.2213 21.5231 14.9749C21.1943 13.3703 21.8185 11.1238 24.0031 10.268C24.4679 10.0899 24.972 10.0273 25.4687 10.0862C26.0655 10.191 26.613 10.473 27.0339 10.8924C27.4548 11.3117 27.728 11.8473 27.8149 12.4236C28.1827 14.333 27.3468 16.3709 25.8476 17.2213ZM26.4774 13.6217C26.4769 13.1773 26.3131 12.7474 26.0149 12.4075C25.8555 12.1973 25.625 12.0467 25.3628 11.9813C25.1006 11.916 24.8229 11.9399 24.577 12.0492C23.5962 12.4556 22.9052 13.9319 23.156 15.0177C23.1751 15.1881 23.2328 15.3524 23.325 15.4992C23.4172 15.6459 23.5417 15.7716 23.6898 15.8674C23.8379 15.9631 24.006 16.0267 24.1823 16.0537C24.3587 16.0805 24.5391 16.0702 24.7108 16.0232C25.2292 15.8494 25.6781 15.5246 25.9948 15.094C26.3116 14.6634 26.4803 14.1487 26.4774 13.6217Z" fill="#3A3B7B"/>
<path d="M29.646 17.6707C29.6187 17.8664 29.5115 18.0437 29.3479 18.1636C29.1843 18.2835 28.9779 18.3361 28.7739 18.3098C28.5699 18.2836 28.3852 18.1806 28.2603 18.0237C28.1354 17.8667 28.0806 17.6685 28.108 17.4728C28.1353 17.277 28.2426 17.0997 28.4061 16.9798C28.5697 16.8599 28.7761 16.8074 28.9801 16.8336C29.1841 16.8598 29.3688 16.9627 29.4937 17.1197C29.6186 17.2767 29.6734 17.4749 29.646 17.6707ZM29.1612 10.4553C29.2672 10.2999 29.4227 10.1816 29.6045 10.118C29.7863 10.0543 29.9846 10.0488 30.1699 10.1022C30.3583 10.1475 30.5247 10.2535 30.6414 10.4024C30.7581 10.5514 30.8179 10.7344 30.8108 10.9206C30.7862 11.2193 30.7397 11.516 30.6715 11.8085C30.4876 12.798 30.3092 13.7875 30.1142 14.7663C30.025 15.1568 29.908 15.5312 29.7798 15.927C29.7352 16.0507 29.6607 16.1625 29.5625 16.2532C29.5014 16.3215 29.4234 16.3739 29.3356 16.4055C29.2479 16.4371 29.1532 16.447 29.0604 16.4342C28.9677 16.4214 28.8797 16.3863 28.8048 16.3323C28.7299 16.2782 28.6704 16.2069 28.6318 16.1249C28.5656 15.9778 28.5296 15.8198 28.5259 15.6595C28.5259 14.9963 28.5259 14.3277 28.5705 13.6591C28.6463 12.705 28.7953 11.7574 29.0163 10.8243C29.0424 10.6993 29.0914 10.5798 29.1612 10.4713V10.4553Z" fill="#3A3B7B"/>
<path fill-rule="evenodd" clip-rule="evenodd" d="M4.16243 21.9688C4.09663 22.1098 4.07859 22.267 4.11074 22.4182C4.13213 22.6176 4.17912 22.8137 4.25062 23.0021C4.3399 23.2328 4.4398 23.4609 4.56298 23.742C4.5913 23.8067 4.6209 23.8742 4.65188 23.9453C4.81799 24.3262 5.02642 24.8129 5.30443 25.5174C5.38311 25.7175 5.45299 25.9192 5.52336 26.1224C5.55178 26.2045 5.58031 26.2868 5.60951 26.3694C5.71418 26.6628 5.89428 26.9264 6.13301 27.1353C6.23438 27.2501 6.36884 27.3338 6.51961 27.3757C6.67332 27.4183 6.83681 27.4156 6.98889 27.3679C7.14097 27.3202 7.27454 27.2296 7.37226 27.108C7.46807 26.9887 7.52504 26.8451 7.53612 26.6949C7.59828 26.4025 7.57706 26.0993 7.47462 25.8174C7.31202 25.3493 7.12681 24.8805 6.91322 24.422L6.91224 24.42C6.56088 23.7027 6.20372 22.9903 5.82966 22.2776L5.82686 22.2726C5.71736 22.087 5.57505 21.921 5.40634 21.7822C5.29681 21.6583 5.14572 21.5747 4.97888 21.5459C4.80847 21.5164 4.63272 21.5461 4.48301 21.6295C4.34138 21.7072 4.22911 21.8259 4.16243 21.9688Z" fill="#3A3B7B"/>
<path fill-rule="evenodd" clip-rule="evenodd" d="M9.5292 20.2024C8.97827 20.0655 8.4029 20.0455 7.84319 20.144C7.40967 20.1849 6.98329 20.2809 6.68722 20.471C6.53664 20.5678 6.41489 20.692 6.34717 20.8499C6.27908 21.0087 6.27038 21.1903 6.32619 21.3926C6.42807 21.7632 6.56038 22.1235 6.69222 22.4827L6.71358 22.5409L6.71409 22.5421C7.11107 23.5856 7.51183 24.6255 7.91624 25.6618C7.9634 25.8251 8.03009 25.9827 8.11496 26.1313L8.11655 26.134C8.22867 26.3186 8.37248 26.4837 8.5419 26.6224C8.62663 26.6987 8.73141 26.7514 8.84503 26.775C8.95976 26.7988 9.07908 26.7919 9.18999 26.755C9.30094 26.7182 9.39918 26.6528 9.47405 26.566C9.5477 26.4806 9.59594 26.3778 9.61365 26.2683C9.68674 25.9709 9.66333 25.6592 9.54649 25.3749C9.51003 25.2793 9.48143 25.1815 9.45129 25.0786C9.44124 25.0443 9.43105 25.0094 9.4203 24.9738C10.346 24.6265 11.331 24.1596 11.6773 23.0732C11.813 22.6978 11.8243 22.2912 11.7097 21.9094C11.595 21.5271 11.3597 21.1882 11.0362 20.9395C10.5959 20.5913 10.0815 20.3397 9.5292 20.2024ZM8.00209 21.5349C8.02032 21.5299 8.03869 21.5252 8.0571 21.5208C8.65977 21.4299 9.27635 21.5511 9.79335 21.8619C10.0212 22.014 10.1145 22.183 10.1306 22.3456C10.1471 22.513 10.0837 22.6944 9.95627 22.8687C9.71553 23.1981 9.27621 23.4618 8.87938 23.5109C8.59008 22.8715 8.2963 22.2062 8.00209 21.5349Z" fill="#3A3B7B"/>
<path d="M13.2021 19.0319C13.8582 18.7411 14.6709 18.6909 15.3068 18.8953C15.467 18.9401 15.606 19.037 15.6999 19.1693C15.7933 19.3009 15.8364 19.4594 15.822 19.6178C15.8211 19.7207 15.7948 19.8219 15.7453 19.9132C15.6949 20.0061 15.6219 20.086 15.5326 20.1462C15.4432 20.2064 15.3401 20.2451 15.2319 20.2589C15.1236 20.2727 15.0136 20.2613 14.9109 20.2257L14.9031 20.223L14.8958 20.2193C14.8432 20.1929 14.7874 20.173 14.7297 20.1601L14.7261 20.1593C14.2787 20.0453 13.8567 20.2342 13.7026 20.4664C13.6291 20.5771 13.62 20.6889 13.6812 20.7905C13.7467 20.8994 13.9076 21.0216 14.233 21.1086C14.3225 21.1322 14.4142 21.155 14.5073 21.1781C14.7646 21.2421 15.032 21.3085 15.2906 21.4006L15.2916 21.4009C16.4846 21.8366 16.9288 22.7389 16.7767 23.5875C16.6263 24.4267 15.896 25.1905 14.7979 25.3706C14.3983 25.4557 13.9824 25.4391 13.5915 25.3226C13.1996 25.2058 12.8463 24.9926 12.5668 24.7041L12.5595 24.6966C12.4712 24.5879 12.4119 24.4602 12.3856 24.3247C12.3614 24.2025 12.3741 24.0761 12.4222 23.9606C12.4701 23.8457 12.5511 23.7463 12.6555 23.6738C12.7659 23.5917 12.8989 23.5424 13.0381 23.5322C13.1769 23.5219 13.3157 23.5509 13.4375 23.6154C13.5592 23.6718 13.6724 23.7438 13.774 23.8294L13.776 23.831C13.9557 23.9887 14.1732 24.0298 14.3817 23.9918C14.5933 23.9531 14.7922 23.833 14.9202 23.6736C15.0473 23.5151 15.0984 23.327 15.0378 23.1443C14.9768 22.9603 14.7936 22.7541 14.391 22.5817C14.2857 22.5388 14.1766 22.5042 14.0631 22.4706C14.0324 22.4615 14.0013 22.4524 13.9698 22.4433C13.8859 22.4188 13.7995 22.3936 13.7148 22.3659C13.6565 22.3468 13.5986 22.3287 13.5413 22.3108C13.3847 22.2618 13.232 22.2141 13.0851 22.1501C12.7653 22.0456 12.489 21.8449 12.2973 21.5778C12.1049 21.3096 12.008 20.9889 12.0212 20.6635C12.0222 19.8706 12.5425 19.3243 13.2021 19.0319Z" fill="#3A3B7B"/>
<path d="M21.5198 18.9475C21.3926 18.8878 21.2519 18.8595 21.1105 18.8651C20.969 18.8707 20.8312 18.9099 20.7096 18.9794C20.5887 19.0484 20.4874 19.1451 20.4149 19.2607C20.3484 19.3581 20.3024 19.467 20.2794 19.5814C20.2565 19.6957 20.257 19.8131 20.281 19.9271C20.3047 20.0737 20.331 20.2162 20.3569 20.3567C20.3999 20.5892 20.4416 20.8165 20.4692 21.0483L20.4702 21.0542C20.533 21.4177 20.5659 21.7853 20.5688 22.1537L20.5691 22.1589C20.5905 22.5568 20.4493 22.9469 20.1757 23.2464L20.1713 23.2518C20.0823 23.3613 19.9633 23.4449 19.8275 23.4932C19.6918 23.5415 19.5447 23.5526 19.4028 23.5252C19.2609 23.4979 19.1297 23.4332 19.0239 23.3384C18.9181 23.2435 18.8417 23.122 18.8036 22.988C18.7223 22.7055 18.6753 22.415 18.6633 22.1222L18.8022 19.9997C18.8042 19.972 18.8066 19.9436 18.809 19.9149C18.8142 19.8504 18.8197 19.7848 18.8219 19.7235C18.8252 19.6334 18.8224 19.5407 18.8005 19.453C18.7781 19.3634 18.7355 19.2781 18.66 19.2055C18.5852 19.1336 18.4843 19.0805 18.3573 19.0444C18.1276 18.9806 17.9333 18.9826 17.7715 19.0486C17.6095 19.1145 17.4986 19.2369 17.4201 19.3783C17.3422 19.5185 17.2921 19.6845 17.2542 19.8507C17.2262 19.9741 17.2036 20.1036 17.1821 20.2269C17.1747 20.2694 17.1675 20.3111 17.1601 20.3516L17.1599 20.3528C17.0451 21.0288 17.011 21.7152 17.0581 22.3987C17.0669 22.7681 17.1471 23.1327 17.2948 23.4739C17.4614 23.9141 17.7632 24.2955 18.1603 24.5678C18.5583 24.8406 19.0332 24.991 19.5221 24.9989C20.0111 25.0068 20.491 24.872 20.8984 24.6123C21.305 24.353 21.6202 23.9813 21.8022 23.5464C22.0568 22.9924 22.1763 22.39 22.1517 21.7849C22.1367 21.3432 22.1117 20.8981 22.0868 20.4553C22.0745 20.238 22.0623 20.0213 22.0514 19.8058C22.0459 19.5898 21.9716 19.3805 21.8386 19.2062C21.7563 19.0959 21.6468 19.007 21.5198 18.9475Z" fill="#3A3B7B"/>
<path d="M26.0222 22.2755C26.0093 22.2912 25.9957 22.3075 25.9815 22.3244C25.878 21.7515 25.7821 21.1788 25.6861 20.6052C25.6516 20.3994 25.617 20.1927 25.5822 19.9866L25.5782 19.9636L25.5655 19.9438C25.5415 19.9064 25.5392 19.8697 25.5392 19.7915V19.7825L25.5377 19.7736C25.5117 19.6121 25.4356 19.4619 25.3194 19.3425C25.2035 19.2234 25.053 19.1406 24.8874 19.1046C24.7221 19.0655 24.5484 19.0741 24.3881 19.1294C24.2283 19.1846 24.0889 19.2838 23.9875 19.4146C23.9032 19.5149 23.8341 19.6262 23.7823 19.7451C23.6648 20.0013 23.5462 20.2581 23.4273 20.5156L23.4252 20.5201C23.1284 21.163 22.8296 21.8102 22.5395 22.4624L22.5386 22.4645C22.3605 22.8875 22.2134 23.3331 22.0669 23.7774C22.0376 23.8661 22.0084 23.9547 21.9789 24.0431C21.926 24.1833 21.9029 24.3323 21.9108 24.4811C21.9012 24.6144 21.9344 24.7474 22.0061 24.862C22.0792 24.979 22.1887 25.071 22.3191 25.1252C22.4574 25.1834 22.6119 25.1957 22.7584 25.1603C22.9045 25.1249 23.0342 25.044 23.1272 24.9302C23.2459 24.7901 23.348 24.6372 23.4313 24.4753C23.6771 23.9927 23.912 23.5043 24.1458 23.018C24.2363 22.8299 24.3242 22.6615 24.4242 22.478C24.4311 22.5006 24.4381 22.5227 24.4453 22.5448C24.5501 22.9877 24.7271 23.412 24.9696 23.8021C25.0155 23.8847 25.0794 23.9569 25.157 24.0137C25.2355 24.0713 25.3261 24.1116 25.4226 24.1321C25.519 24.1526 25.6189 24.1527 25.7154 24.1324C25.8117 24.1121 25.9026 24.0717 25.9811 24.0145L26.1366 23.9028L27.3435 22.9271L27.2721 23.3636C27.1742 23.9636 27.077 24.5587 26.9737 25.1538C26.9061 25.4176 26.9062 25.6932 26.974 25.9569C27.0033 26.1053 27.0781 26.2419 27.1888 26.3493C27.3004 26.4577 27.4433 26.5312 27.599 26.5606C27.7547 26.5899 27.9161 26.5737 28.062 26.5139C28.2059 26.455 28.3282 26.3566 28.4138 26.2311C28.6128 25.9942 28.7366 25.7073 28.7706 25.4046C28.8219 24.9772 28.8797 24.544 28.9376 24.1109C29.0043 23.6118 29.071 23.1127 29.1273 22.6232L29.1275 22.6217C29.1817 22.0859 29.2079 21.5479 29.2061 21.0096C29.218 20.8395 29.1739 20.67 29.0798 20.5252C28.9855 20.3798 28.8457 20.2668 28.6806 20.2022C28.5088 20.1272 28.3165 20.1072 28.1319 20.1451C27.9486 20.1827 27.7826 20.2755 27.6581 20.4098C27.4355 20.6074 27.2267 20.8189 27.0329 21.0428L27.0316 21.0443C26.8202 21.2972 26.6101 21.5551 26.4014 21.8113C26.2746 21.9671 26.148 22.1225 26.0222 22.2755Z" fill="#3A3B7B"/>
</g>
<defs>
<clipPath id="clip0_211_2056">
<rect width="32.7153" height="20.186" fill="white" transform="translate(1.16064 7.21979)"/>
</clipPath>
</defs>
</svg>
