<svg width="39" height="34" viewBox="0 0 39 34" fill="none" xmlns="http://www.w3.org/2000/svg">
<g clip-path="url(#clip0_211_2052)">
<path d="M38.5802 13.9505C38.5841 13.9215 38.5841 13.8921 38.5802 13.8631C38.5839 13.8395 38.5839 13.8153 38.5802 13.7916L38.2965 11.7503C38.2556 11.5061 38.1462 11.2778 37.9806 11.0911L37.9319 11.0354L37.8429 10.9481L32.9331 6.80188L33.0708 6.93692C32.9581 6.80475 32.8167 6.69903 32.6569 6.62755C32.497 6.55607 32.3228 6.52065 32.1472 6.52389H30.6564C30.414 6.51918 30.1771 6.59474 29.984 6.73835C29.7811 6.59561 29.5369 6.52043 29.2872 6.52389H27.7964C27.6009 6.52078 27.408 6.56835 27.2373 6.6618C27.0666 6.75525 26.9241 6.89126 26.8242 7.05606C26.6702 7.29144 26.6124 7.57503 26.6621 7.85035L26.8485 9.1371C26.725 9.06849 26.5853 9.03289 26.4434 9.03385H19.2246C18.9655 9.03544 18.7125 9.10987 18.4954 9.2483C18.2854 9.37715 18.1168 9.56165 18.0093 9.78047L17.4502 9.31184C17.2302 9.11226 16.9398 9.00408 16.64 9.01002H5.31348C5.05356 9.01466 4.79941 9.08585 4.57622 9.21653C4.27087 9.39174 4.0471 9.67663 3.95235 10.0108L0.355083 21.806C0.287869 22.0004 0.281257 22.21 0.336094 22.4081C0.390931 22.6061 0.504733 22.7837 0.662961 22.918C0.704191 22.9523 0.747482 22.9841 0.792595 23.0133C0.792595 23.0133 0.719666 22.9657 0.679156 22.926L5.58897 27.0801C5.79666 27.2676 6.06821 27.3724 6.3505 27.374H17.7662C18.0269 27.3673 18.2812 27.2934 18.5035 27.1595C18.6292 27.0922 18.7416 27.0034 18.8357 26.8974L18.8762 26.8418L18.941 26.7624L18.9896 26.675L19.5243 27.1278C19.729 27.3078 19.9947 27.4068 20.2697 27.4058H31.7097C31.9701 27.3973 32.2239 27.3234 32.4469 27.1913C32.5698 27.1198 32.6816 27.0316 32.7792 26.9292L32.8196 26.8736L32.8844 26.7942C32.9189 26.7439 32.9488 26.6908 32.9735 26.6353C33 26.5871 33.0217 26.5366 33.0384 26.4844L36.3197 15.7138V15.6185C36.3237 15.5815 36.3237 15.5443 36.3197 15.5073V15.4358C36.3236 15.4121 36.3236 15.388 36.3197 15.3643C36.3233 15.3141 36.3233 15.2637 36.3197 15.2134H37.3729C37.4646 15.2216 37.5568 15.2216 37.6484 15.2134H37.7213C37.7806 15.1961 37.8377 15.172 37.8915 15.1419H37.9725L38.1183 15.0307L38.1831 14.9831L38.2965 14.8401V14.7925L38.3776 14.6574C38.3731 14.6312 38.3731 14.6043 38.3776 14.578C38.3733 14.5651 38.3733 14.5512 38.3776 14.5383C38.3948 14.4917 38.4084 14.4439 38.4181 14.3953C38.4143 14.3796 38.4143 14.3633 38.4181 14.3476C38.4142 14.324 38.4142 14.2998 38.4181 14.2762C38.4181 14.2762 38.5802 13.9664 38.5802 13.9505Z" fill="black"/>
<path d="M16.972 9.91554C17.015 9.95367 17.045 10.0038 17.0581 10.0592C17.0711 10.1146 17.0665 10.1726 17.0449 10.2253L13.4558 22.0126C13.4106 22.1413 13.3181 22.2488 13.1965 22.3144C13.0975 22.3793 12.983 22.4176 12.8643 22.4256H1.45674C1.35932 22.421 1.26703 22.3814 1.19748 22.3144C1.1561 22.2769 1.12707 22.2281 1.11408 22.1744C1.10109 22.1206 1.10474 22.0643 1.12456 22.0126L4.72183 10.2253C4.76328 10.095 4.85284 9.98453 4.97299 9.91554C5.07358 9.85531 5.18756 9.81987 5.30517 9.81228H16.7127C16.8094 9.81319 16.902 9.85011 16.972 9.91554ZM11.017 19.6376L13.1641 12.6002H7.15243L5.01349 19.6376H11.017ZM27.861 10.0347C27.8999 10.079 27.9486 10.1142 28.0033 10.1376C28.058 10.1609 28.1173 10.1719 28.177 10.1697H29.6597C29.7161 10.1702 29.7717 10.1567 29.8214 10.1303C29.871 10.1039 29.9129 10.0655 29.9432 10.0188C29.9695 9.98231 29.9881 9.94101 29.9979 9.89735C30.0076 9.85369 30.0083 9.80856 29.9999 9.76462L29.7083 7.6677C29.6805 7.57065 29.6306 7.48103 29.5625 7.40558C29.5235 7.36124 29.4749 7.32607 29.4202 7.30269C29.3655 7.27932 29.3061 7.26833 29.2465 7.27055H27.7638C27.7073 7.27001 27.6517 7.28359 27.6021 7.30999C27.5524 7.3364 27.5105 7.37476 27.4802 7.42147C27.4235 7.53267 27.3992 7.60415 27.4235 7.6677L27.7233 9.76462C27.7387 9.86673 27.7869 9.96134 27.861 10.0347ZM32.5683 7.65181C32.5405 7.55476 32.4906 7.46514 32.4224 7.38969C32.3851 7.34551 32.3379 7.31036 32.2845 7.28694C32.2312 7.26353 32.173 7.25248 32.1145 7.25467H30.6238C30.5683 7.25312 30.5133 7.26632 30.4648 7.29289C30.4163 7.31946 30.3761 7.3584 30.3483 7.40558C30.2944 7.47605 30.2711 7.56456 30.2835 7.65181L30.5833 9.74873C30.6021 9.84976 30.6498 9.94344 30.721 10.0188C30.7606 10.0623 30.8094 10.0968 30.8639 10.1201C30.9185 10.1435 30.9775 10.1549 31.037 10.1538H32.5277C32.5832 10.1545 32.6377 10.141 32.686 10.1145C32.7344 10.088 32.7748 10.0495 32.8032 10.0029C32.8314 9.96737 32.8511 9.92609 32.8609 9.88211C32.8708 9.83814 32.8704 9.79257 32.8599 9.74873L32.5683 7.65181ZM26.5566 10.829L26.4107 9.79639H19.2243C19.1115 9.80249 19.0023 9.83815 18.9083 9.89965C18.8487 9.93155 18.7967 9.97577 18.7562 10.0292C18.7156 10.0827 18.6874 10.1442 18.6734 10.2094L18.0739 12.1792C18.0499 12.2285 18.0417 12.2837 18.0504 12.3376C18.0591 12.3915 18.0842 12.4415 18.1224 12.4811C18.1908 12.5441 18.2799 12.5808 18.3736 12.5844H27.1076L24.9605 19.6218H16.2509C16.1386 19.6243 16.0292 19.6573 15.935 19.7171C15.8204 19.7884 15.7367 19.8987 15.7 20.0268L15.0923 21.9967C15.0725 22.0472 15.0673 22.1022 15.0773 22.1554C15.0873 22.2087 15.1121 22.2582 15.149 22.2985C15.2152 22.3657 15.3051 22.4055 15.4002 22.4097H26.8402C26.9585 22.3997 27.0725 22.3616 27.1723 22.2985C27.292 22.2326 27.3817 22.1248 27.4235 21.9967L30.7129 11.2261H27.0103C26.9516 11.2272 26.8932 11.2166 26.8389 11.1947C26.7845 11.1728 26.7354 11.1403 26.6944 11.099C26.6274 11.027 26.58 10.9396 26.5566 10.8449V10.829Z" fill="white"/>
</g>
<defs>
<clipPath id="clip0_211_2052">
<rect width="38.2838" height="20.8821" fill="white" transform="translate(0.299316 6.52368)"/>
</clipPath>
</defs>
</svg>
