<svg width="34" height="34" viewBox="0 0 34 34" fill="none" xmlns="http://www.w3.org/2000/svg">
<g clip-path="url(#clip0_211_2049)">
<path fill-rule="evenodd" clip-rule="evenodd" d="M10.0455 10.0838L3.09473 16.9648C4.48501 18.3411 6.0732 19.501 7.80478 20.4085C8.2834 21.6653 9.03361 22.844 10.0554 23.8555C13.8997 27.6611 20.1326 27.6611 23.9768 23.8555C24.9986 22.844 25.7489 21.6653 26.2275 20.4084C27.959 19.501 29.5472 18.3411 30.9375 16.9648L23.9923 10.0894C23.9872 10.0843 23.982 10.0792 23.9768 10.074C20.1326 6.26838 13.8997 6.26838 10.0554 10.074C10.0521 10.0773 10.0488 10.0806 10.0455 10.0838ZM23.3117 21.6499C21.2862 22.3267 19.1598 22.6732 17.0161 22.6732C14.8724 22.6732 12.7461 22.3267 10.7206 21.6499C10.9401 21.9382 11.1824 22.2148 11.4476 22.4774C14.523 25.5219 19.5092 25.5219 22.5847 22.4774C22.8499 22.2148 23.0922 21.9382 23.3117 21.6499ZM11.5903 11.3143C12.1126 11.6559 12.6679 11.9482 13.249 12.1865C14.4433 12.6762 15.7234 12.9283 17.0161 12.9283C18.3089 12.9283 19.5889 12.6762 20.7832 12.1865C21.3643 11.9482 21.9196 11.6559 22.442 11.3143C19.4049 8.45359 14.6273 8.4536 11.5903 11.3143Z" fill="#3B4158"/>
</g>
<defs>
<clipPath id="clip0_211_2049">
<rect width="27.8428" height="19.4899" fill="white" transform="translate(3.09473 7.21979)"/>
</clipPath>
</defs>
</svg>
