<svg width="37" height="34" viewBox="0 0 37 34" fill="none" xmlns="http://www.w3.org/2000/svg">
<g clip-path="url(#clip0_211_2076)">
<path d="M8.81726 10.004C7.40373 10.004 6.04811 10.5655 5.0486 11.5651L1.78662 14.827C0.787105 15.8266 0.225586 17.1822 0.225586 18.5957C0.225586 21.5392 2.61178 23.9254 5.5553 23.9254C6.96883 23.9254 8.32445 23.3639 9.32396 22.3644L11.5803 20.108C11.5803 20.108 11.5803 20.1081 11.5803 20.108L18.1545 13.5338C18.6318 13.0565 19.2793 12.7883 19.9544 12.7883C21.0846 12.7883 22.0428 13.5249 22.375 14.5443L24.4498 12.4695C23.5033 10.987 21.8436 10.004 19.9544 10.004C18.5408 10.004 17.1852 10.5655 16.1857 11.5651L7.35519 20.3956C6.87783 20.873 6.23039 21.1411 5.5553 21.1411C4.14949 21.1411 3.00986 20.0015 3.00986 18.5957C3.00986 17.9206 3.27804 17.2732 3.7554 16.7958L7.01737 13.5338C7.49473 13.0565 8.14217 12.7883 8.81726 12.7883C9.94754 12.7883 10.9057 13.525 11.2379 14.5444L13.3128 12.4695C12.3662 10.9871 10.7066 10.004 8.81726 10.004Z" fill="#394149"/>
<path d="M18.4924 20.3956C18.0151 20.873 17.3676 21.1411 16.6925 21.1411C15.5624 21.1411 14.6043 20.4047 14.272 19.3855L12.1973 21.4603C13.1438 22.9425 14.8034 23.9254 16.6925 23.9254C18.1061 23.9254 19.4617 23.3639 20.4612 22.3644L29.2917 13.5338C29.7691 13.0565 30.4165 12.7883 31.0916 12.7883C32.4974 12.7883 33.637 13.9279 33.637 15.3337C33.637 16.0088 33.3689 16.6563 32.8915 17.1336L29.6295 20.3956C29.1522 20.873 28.5047 21.1411 27.8296 21.1411C26.6995 21.1411 25.7413 20.4046 25.409 19.3853L23.3343 21.4601C24.2808 22.9425 25.9404 23.9254 27.8296 23.9254C29.2432 23.9254 30.5988 23.3639 31.5983 22.3644L34.8603 19.1024C35.8598 18.1029 36.4213 16.7473 36.4213 15.3337C36.4213 12.3902 34.0351 10.004 31.0916 10.004C29.6781 10.004 28.3225 10.5655 27.3229 11.5651L18.4924 20.3956Z" fill="#394149"/>
</g>
<defs>
<clipPath id="clip0_211_2076">
<rect width="36.1956" height="13.9214" fill="white" transform="translate(0.225586 10.004)"/>
</clipPath>
</defs>
</svg>
