<svg width="34" height="34" viewBox="0 0 34 34" fill="none" xmlns="http://www.w3.org/2000/svg">
<g clip-path="url(#clip0_211_2072)">
<path d="M30.0806 8.50314C30.0806 8.8275 30.3467 9.09045 30.6751 9.09045H31.2697C31.5981 9.09045 31.8642 8.8275 31.8642 8.50314C31.8642 8.17878 31.5981 7.91583 31.2697 7.91583H30.6751C30.3467 7.91583 30.0806 8.17878 30.0806 8.50314Z" fill="#212326"/>
<path d="M12.8381 26.7097H15.7264L14.8856 25.8791C14.6626 25.6588 14.3601 25.5351 14.0448 25.5351H12.8381C8.24101 25.5351 4.51431 21.8538 4.51431 17.3128C4.51431 12.7717 8.24101 9.09045 12.8381 9.09045H22.3511C26.9482 9.09045 30.6749 12.7717 30.6749 17.3128C30.6749 21.8538 26.9482 25.5351 22.3511 25.5351H18.7925C18.3194 25.5351 17.8657 25.3495 17.5312 25.0191L16.5462 24.046C15.9886 23.4953 15.2325 23.1859 14.444 23.1859H12.8381C9.55446 23.1859 6.89255 20.5564 6.89255 17.3128C6.89255 14.0691 9.55446 11.4397 12.8381 11.4397H22.3511C25.6348 11.4397 28.2967 14.0691 28.2967 17.3128C28.2967 20.5564 25.6348 23.1859 22.3511 23.1859H20.0661C19.5931 23.1859 19.1394 23.0002 18.8049 22.6698L17.8197 21.6967C17.2622 21.146 16.5061 20.8366 15.7177 20.8366H12.8381C10.868 20.8366 9.27079 19.2589 9.27079 17.3128C9.27079 15.3666 10.868 13.7889 12.8381 13.7889H22.3511C24.3213 13.7889 25.9185 15.3666 25.9185 17.3128C25.9185 19.2352 24.36 20.7981 22.423 20.8359L22.4226 20.8366H21.5525C21.0795 20.8366 20.6258 20.651 20.2913 20.3206L19.3061 19.3475C18.8487 18.8956 18.2575 18.6062 17.6245 18.5169L17.5946 18.4874H12.8381C12.1814 18.4874 11.649 17.9615 11.649 17.3128C11.649 16.6641 12.1814 16.1382 12.8381 16.1382H22.3511C23.0078 16.1382 23.5402 16.6641 23.5402 17.3128C23.5402 17.9615 23.0078 18.4874 22.3511 18.4874H19.9729L20.8137 19.318C21.0367 19.5382 21.3392 19.662 21.6545 19.662H22.3511C23.6645 19.662 24.7293 18.6102 24.7293 17.3128C24.7293 16.0153 23.6645 14.9635 22.3511 14.9635H12.8381C11.5247 14.9635 10.4599 16.0153 10.4599 17.3128C10.4599 18.6102 11.5247 19.662 12.8381 19.662H17.2041C17.6771 19.662 18.1308 19.8476 18.4653 20.178L19.4505 21.1511C20.008 21.7018 20.7641 22.0112 21.5525 22.0112H22.6484V22.0022C25.1368 21.8506 27.1076 19.809 27.1076 17.3128C27.1076 14.7179 24.978 12.6143 22.3511 12.6143H12.8381C10.2112 12.6143 8.08167 14.7179 8.08167 17.3128C8.08167 19.9077 10.2112 22.0112 12.8381 22.0112H15.7177C16.1907 22.0112 16.6444 22.1969 16.9789 22.5273L17.9641 23.5004C18.5216 24.0511 19.2777 24.3605 20.0661 24.3605H22.3511C26.2915 24.3605 29.4858 21.2051 29.4858 17.3128C29.4858 13.4204 26.2915 10.2651 22.3511 10.2651H12.8381C8.89774 10.2651 5.70343 13.4204 5.70343 17.3128C5.70343 21.2051 8.89774 24.3605 12.8381 24.3605H14.444C14.9171 24.3605 15.3708 24.5461 15.7053 24.8765L16.6904 25.8496C17.2479 26.4003 18.0041 26.7097 18.7925 26.7097H22.3511C27.605 26.7097 31.864 22.5026 31.864 17.3128C31.864 12.123 27.605 7.91583 22.3511 7.91583L12.8381 7.91583C7.58429 7.91583 3.32519 12.123 3.3252 17.3128C3.3252 22.5026 7.58429 26.7097 12.8381 26.7097Z" fill="#212326"/>
</g>
<defs>
<clipPath id="clip0_211_2072">
<rect width="28.5388" height="18.7939" fill="white" transform="translate(3.3252 7.91583)"/>
</clipPath>
</defs>
</svg>
