<svg width="39" height="34" viewBox="0 0 39 34" fill="none" xmlns="http://www.w3.org/2000/svg">
<g clip-path="url(#clip0_211_2080)">
<path d="M38.8868 13.9505C38.8908 13.9215 38.8908 13.8921 38.8868 13.8631C38.8906 13.8395 38.8906 13.8153 38.8868 13.7916L38.6032 11.7503C38.5623 11.5061 38.4529 11.2778 38.2872 11.0911L38.2386 11.0354L38.1495 10.9481L33.2397 6.80188L33.3774 6.93692C33.2648 6.80475 33.1233 6.69903 32.9635 6.62755C32.8037 6.55607 32.6295 6.52065 32.4538 6.52389H30.9631C30.7206 6.51918 30.4838 6.59474 30.2906 6.73835C30.0877 6.59561 29.8435 6.52043 29.5938 6.52389H28.103C27.9075 6.52078 27.7147 6.56835 27.5439 6.6618C27.3732 6.75525 27.2307 6.89126 27.1308 7.05606C26.9769 7.29144 26.919 7.57503 26.9688 7.85035L27.1551 9.1371C27.0317 9.06849 26.8919 9.03289 26.75 9.03385H19.5312C19.2722 9.03544 19.0191 9.10987 18.802 9.2483C18.592 9.37715 18.4235 9.56165 18.3159 9.78047L17.7568 9.31184C17.5368 9.11226 17.2464 9.00408 16.9467 9.01002H5.62012C5.3602 9.01466 5.10605 9.08585 4.88286 9.21653C4.57752 9.39174 4.35374 9.67663 4.25899 10.0108L0.661724 21.806C0.59451 22.0004 0.587898 22.21 0.642735 22.4081C0.697571 22.6061 0.811373 22.7837 0.969602 22.918C1.01083 22.9523 1.05412 22.9841 1.09924 23.0133C1.09924 23.0133 1.02631 22.9657 0.985797 22.926L5.89561 27.0801C6.1033 27.2676 6.37485 27.3724 6.65714 27.374H18.0728C18.3335 27.3673 18.5879 27.2934 18.8101 27.1595C18.9358 27.0922 19.0483 27.0034 19.1423 26.8974L19.1828 26.8418L19.2476 26.7624L19.2962 26.675L19.831 27.1278C20.0357 27.3078 20.3013 27.4068 20.5763 27.4058H32.0163C32.2767 27.3973 32.5306 27.3234 32.7536 27.1913C32.8765 27.1198 32.9883 27.0316 33.0858 26.9292L33.1263 26.8736L33.1911 26.7942C33.2255 26.7439 33.2554 26.6908 33.2802 26.6353C33.3067 26.5871 33.3284 26.5366 33.345 26.4844L36.6263 15.7138V15.6185C36.6303 15.5815 36.6303 15.5443 36.6263 15.5073V15.4358C36.6302 15.4121 36.6302 15.388 36.6263 15.3643C36.63 15.3141 36.63 15.2637 36.6263 15.2134H37.6796C37.7712 15.2216 37.8634 15.2216 37.955 15.2134H38.028C38.0873 15.1961 38.1444 15.172 38.1981 15.1419H38.2792L38.4249 15.0307L38.4898 14.9831L38.6032 14.8401V14.7925L38.6842 14.6574C38.6797 14.6312 38.6797 14.6043 38.6842 14.578C38.6799 14.5651 38.6799 14.5512 38.6842 14.5383C38.7014 14.4917 38.715 14.4439 38.7247 14.3953C38.721 14.3796 38.721 14.3633 38.7247 14.3476C38.7208 14.324 38.7208 14.2998 38.7247 14.2762C38.7247 14.2762 38.8868 13.9664 38.8868 13.9505Z" fill="black"/>
<path d="M17.2786 9.91554C17.3216 9.95367 17.3517 10.0038 17.3647 10.0592C17.3778 10.1146 17.3731 10.1726 17.3516 10.2253L13.7624 22.0126C13.7172 22.1413 13.6247 22.2488 13.5031 22.3144C13.4042 22.3793 13.2896 22.4176 13.1709 22.4256H1.76338C1.66596 22.421 1.57367 22.3814 1.50412 22.3144C1.46274 22.2769 1.43371 22.2281 1.42072 22.1744C1.40773 22.1206 1.41139 22.0643 1.4312 22.0126L5.02847 10.2253C5.06992 10.095 5.15948 9.98453 5.27963 9.91554C5.38022 9.85531 5.4942 9.81987 5.61181 9.81228H17.0193C17.116 9.81319 17.2087 9.85011 17.2786 9.91554ZM11.3237 19.6376L13.4707 12.6002H7.45907L5.32013 19.6376H11.3237ZM28.1676 10.0347C28.2066 10.079 28.2552 10.1142 28.3099 10.1376C28.3646 10.1609 28.424 10.1719 28.4836 10.1697H29.9663C30.0228 10.1702 30.0784 10.1567 30.128 10.1303C30.1777 10.1039 30.2196 10.0655 30.2499 10.0188C30.2762 9.98231 30.2948 9.94101 30.3045 9.89735C30.3143 9.85369 30.3149 9.80856 30.3065 9.76462L30.0149 7.6677C29.9871 7.57065 29.9373 7.48103 29.8691 7.40558C29.8301 7.36124 29.7815 7.32607 29.7268 7.30269C29.6721 7.27932 29.6127 7.26833 29.5531 7.27055H28.0704C28.014 7.27001 27.9583 7.28359 27.9087 7.30999C27.8591 7.3364 27.8171 7.37476 27.7869 7.42147C27.7301 7.53267 27.7058 7.60415 27.7301 7.6677L28.0299 9.76462C28.0453 9.86673 28.0936 9.96134 28.1676 10.0347ZM32.8749 7.65181C32.8471 7.55476 32.7972 7.46514 32.7291 7.38969C32.6918 7.34551 32.6446 7.31036 32.5912 7.28694C32.5378 7.26353 32.4796 7.25248 32.4212 7.25467H30.9304C30.8749 7.25312 30.82 7.26632 30.7715 7.29289C30.723 7.31946 30.6827 7.3584 30.655 7.40558C30.6011 7.47605 30.5777 7.56456 30.5902 7.65181L30.8899 9.74873C30.9087 9.84976 30.9565 9.94344 31.0277 10.0188C31.0673 10.0623 31.116 10.0968 31.1706 10.1201C31.2251 10.1435 31.2841 10.1549 31.3436 10.1538H32.8344C32.8898 10.1545 32.9444 10.141 32.9927 10.1145C33.0411 10.088 33.0815 10.0495 33.1099 10.0029C33.1381 9.96737 33.1577 9.92609 33.1676 9.88211C33.1774 9.83814 33.177 9.79257 33.1666 9.74873L32.8749 7.65181ZM26.8632 10.829L26.7174 9.79639H19.531C19.4181 9.80249 19.309 9.83815 19.215 9.89965C19.1553 9.93155 19.1034 9.97577 19.0628 10.0292C19.0223 10.0827 18.994 10.1442 18.9801 10.2094L18.3805 12.1792C18.3566 12.2285 18.3484 12.2837 18.357 12.3376C18.3658 12.3915 18.3909 12.4415 18.4291 12.4811C18.4974 12.5441 18.5866 12.5808 18.6803 12.5844H27.4142L25.2672 19.6218H16.5575C16.4452 19.6243 16.3359 19.6573 16.2416 19.7171C16.127 19.7884 16.0433 19.8987 16.0066 20.0268L15.399 21.9967C15.3791 22.0472 15.3739 22.1022 15.3839 22.1554C15.394 22.2087 15.4188 22.2582 15.4557 22.2985C15.5219 22.3657 15.6117 22.4055 15.7068 22.4097H27.1468C27.2651 22.3997 27.3792 22.3616 27.479 22.2985C27.5986 22.2326 27.6884 22.1248 27.7301 21.9967L31.0195 11.2261H27.3169C27.2582 11.2272 27.1999 11.2166 27.1455 11.1947C27.0912 11.1728 27.042 11.1403 27.001 11.099C26.934 11.027 26.8866 10.9396 26.8632 10.8449V10.829Z" fill="white"/>
</g>
<defs>
<clipPath id="clip0_211_2080">
<rect width="38.2838" height="20.8821" fill="white" transform="translate(0.605957 6.52368)"/>
</clipPath>
</defs>
</svg>
